<svg width="97" height="22" viewBox="0 0 97 22" fill="none" xmlns="http://www.w3.org/2000/svg">
<g clip-path="url(#clip0_211_7976)">
<path d="M81.9402 14.3877L82.8502 11.4982L86.1192 11.4604L83.6535 5.32826L78.6887 17.5768H75.1668L81.8734 1.41253L85.4288 1.36523L92.1561 17.5799L88.6071 17.6036L87.3091 14.4019L81.9402 14.3877Z" fill="url(#paint0_linear_211_7976)"/>
<path d="M29.9527 10.2557L29.8922 17.589L26.655 17.5953L26.6185 10.2951C26.6105 8.80224 25.2313 7.86115 23.8426 8.01405C22.5493 8.15593 21.7109 9.1254 21.7094 10.4117L21.6998 17.5843L18.4785 17.5874L18.4992 9.97192C18.504 8.12125 19.608 6.43767 21.2862 5.68258C23.5419 4.66897 26.6232 4.90543 28.4033 6.76241C30.1977 4.71311 34.1173 4.60749 36.0978 6.13028C37.3307 7.07926 38.037 8.61466 38.0385 10.1926L38.0465 17.5906H34.8538L34.8204 10.2525C34.8141 8.91575 33.6783 8.01248 32.4088 8.01248C31.1601 8.01248 29.9654 8.86057 29.9527 10.2525V10.2557Z" fill="white"/>
<path d="M6.77347 14.3877L7.68339 11.4982L10.9524 11.4604L8.48832 5.32826L3.52195 17.5768H0L6.70825 1.41253L10.262 1.36523L16.9894 17.5799L13.4404 17.6036L12.1423 14.4019L6.77347 14.3877Z" fill="white"/>
<path d="M43.7922 16.71L43.7381 21.983L40.582 22.0004L40.6075 10.6425C40.6123 8.44661 42.0503 6.5518 44.0117 5.68952C46.2102 4.72162 48.7729 4.90133 50.7263 6.26648C52.6798 7.63162 53.5006 10.0671 53.2413 12.4695C53.017 14.5504 51.7603 16.4215 50.1012 17.2176C47.9775 18.2375 45.7854 18.1272 43.7922 16.7116V16.71ZM50.09 11.5899C50.1282 9.55796 48.6997 8.03045 46.7987 8.06828C44.9662 8.10454 43.6618 9.62732 43.6522 11.5064C43.6427 13.4138 44.9264 14.9571 46.7908 15.0044C48.6568 15.0517 50.0518 13.6061 50.09 11.5899Z" fill="white"/>
<path d="M72.4591 8.09201L72.4527 17.5771L69.2362 17.5976L69.2251 8.10304L67.4402 8.06521L67.418 5.38694L69.1742 5.32861L69.3046 3.96346C69.6021 0.839072 72.8472 0.106054 75.6565 0.653059L75.6756 3.48109C74.6528 3.41488 73.0827 3.09803 72.6023 4.07066C72.4448 4.39066 72.3955 5.04486 72.5164 5.33492L75.5722 5.3491L75.6072 8.06836L72.4607 8.09043L72.4591 8.09201Z" fill="white"/>
<path d="M59.9984 14.9296L60.0334 17.6883C58.9899 17.9074 57.9145 17.9326 56.9251 17.4187C55.9818 16.93 55.3677 15.8313 55.3661 14.7152L55.3486 1.01645L58.5604 1.01172L58.5652 14.0295C58.5652 14.69 59.0138 15.0857 59.9984 14.9296Z" fill="white"/>
<path d="M65.1508 17.5486L61.9502 17.5959L61.9375 5.36943L65.1445 5.3584L65.1508 17.5486Z" fill="white"/>
<path d="M96.9217 17.4879L93.9215 17.4989L93.8738 11.3495L93.834 1.40723H96.9996L96.9726 11.3463L96.9201 17.4863L96.9217 17.4879Z" fill="url(#paint1_linear_211_7976)"/>
<path d="M62.9147 0.121442C64.0187 -0.264771 65.067 0.313761 65.3979 1.2659C65.7462 2.27005 65.3088 3.40032 64.2493 3.74712C63.2917 4.06082 62.2132 3.662 61.8059 2.64523C61.4448 1.74669 61.7662 0.521844 62.9147 0.119866V0.121442Z" fill="white"/>
</g>
<defs>
<linearGradient id="paint0_linear_211_7976" x1="83.6614" y1="23.5481" x2="83.6614" y2="3.8575" gradientUnits="userSpaceOnUse">
<stop stop-color="#EC59E2"/>
<stop offset="0.53" stop-color="#FF003B"/>
<stop offset="1" stop-color="#FE6D19"/>
</linearGradient>
<linearGradient id="paint1_linear_211_7976" x1="95.4168" y1="23.1865" x2="95.4168" y2="4.24629" gradientUnits="userSpaceOnUse">
<stop stop-color="#EC59E2"/>
<stop offset="0.53" stop-color="#FF003B"/>
<stop offset="1" stop-color="#FE6D19"/>
</linearGradient>
<clipPath id="clip0_211_7976">
<rect width="97" height="22" fill="white"/>
</clipPath>
</defs>
</svg>
