<svg width="88" height="26" viewBox="0 0 88 26" fill="none" xmlns="http://www.w3.org/2000/svg">
<g clip-path="url(#clip0_211_7954)">
<path d="M3.00311 19.916C3.41604 19.916 3.80689 19.9933 4.17344 20.1458C4.54 20.2982 4.85577 20.5124 5.12516 20.7842C5.39456 21.0559 5.60875 21.3806 5.76774 21.7539C5.92673 22.1294 6.00622 22.5315 6.00622 22.9622C6.00622 23.393 5.92673 23.795 5.76774 24.1661C5.60875 24.5373 5.39456 24.8598 5.12516 25.1315C4.85577 25.4032 4.53779 25.6175 4.17344 25.7699C3.80689 25.9223 3.41825 25.9996 3.00311 25.9996C2.58798 25.9996 2.19934 25.9223 1.83278 25.7699C1.46623 25.6175 1.15046 25.4032 0.88106 25.1315C0.611663 24.8598 0.397471 24.535 0.238482 24.1617C0.0794941 23.7862 0 23.3842 0 22.9534C0 22.5226 0.0794941 22.1206 0.238482 21.7495C0.397471 21.3784 0.611663 21.0559 0.88106 20.7842C1.15046 20.5124 1.46843 20.2982 1.83278 20.1458C2.19934 19.9933 2.58798 19.916 3.00311 19.916ZM3.00311 25.4209C3.33213 25.4209 3.64127 25.359 3.93054 25.2331C4.21981 25.1072 4.47154 24.9371 4.68795 24.7184C4.90435 24.4997 5.07438 24.2412 5.19803 23.9408C5.32169 23.6404 5.38573 23.3135 5.38573 22.9622C5.38573 22.611 5.3239 22.2819 5.19803 21.9792C5.07438 21.6766 4.90214 21.4159 4.68795 21.1972C4.47154 20.9785 4.21981 20.8062 3.93054 20.6825C3.64127 20.5588 3.33213 20.4948 3.00311 20.4948C2.67409 20.4948 2.36495 20.5566 2.07568 20.6825C1.78641 20.8085 1.53468 20.9785 1.31828 21.1972C1.10188 21.4159 0.931848 21.6744 0.80819 21.9748C0.682325 22.2752 0.620496 22.6022 0.620496 22.9534C0.620496 23.3046 0.682325 23.6338 0.80819 23.9364C0.931848 24.239 1.10188 24.5019 1.31828 24.7184C1.53468 24.9371 1.78641 25.1094 2.07568 25.2331C2.36495 25.3568 2.67409 25.4209 3.00311 25.4209Z" fill="white"/>
<path d="M11.6017 20H12.1891V25.9135H11.7121L7.90964 21.0117V25.9135H7.32227V20H7.84119L11.6017 24.8333V20Z" fill="white"/>
<path d="M14.4349 25.3701H17.8553V25.9135H13.832V20H17.8553V20.5434H14.4349V22.5691H17.1995V23.1213H14.4349V25.3679V25.3701Z" fill="white"/>
<path d="M20.9161 25.4481C21.393 25.4481 21.7706 25.3421 22.0511 25.1322C22.3315 24.9223 22.4728 24.6462 22.4728 24.306C22.4728 24.1293 22.4309 23.9857 22.3448 23.8731C22.2586 23.7604 22.1416 23.6632 21.9914 23.5837C21.8413 23.5042 21.6646 23.4357 21.4637 23.3805C21.2627 23.323 21.0463 23.27 20.8123 23.2192C20.2227 23.0822 19.7502 22.9011 19.3924 22.6714C19.0347 22.4416 18.8558 22.0683 18.8558 21.5536C18.8558 21.3261 18.9066 21.1118 19.0082 20.9108C19.1098 20.7098 19.2511 20.5353 19.43 20.3917C19.6088 20.2481 19.8252 20.1332 20.077 20.0471C20.3287 19.9609 20.6025 19.9189 20.8984 19.9189C21.2605 19.9189 21.6161 19.9874 21.9627 20.1222C22.3094 20.2569 22.6318 20.4933 22.9321 20.8291L22.5413 21.262C22.2807 20.955 22.0179 20.7473 21.7552 20.6369C21.4924 20.5264 21.2053 20.4712 20.9006 20.4712C20.4524 20.4712 20.1035 20.5772 19.8495 20.7871C19.5956 20.9969 19.4719 21.2488 19.4719 21.5448C19.4719 21.896 19.6155 22.1456 19.9025 22.2936C20.1896 22.4416 20.5959 22.5764 21.1236 22.7023C21.3908 22.7641 21.6426 22.8348 21.881 22.9099C22.1195 22.9873 22.3271 23.0845 22.5059 23.2037C22.6848 23.323 22.8261 23.4688 22.9321 23.6411C23.0359 23.8134 23.0889 24.0321 23.0889 24.2928C23.0889 24.5314 23.0403 24.7545 22.941 24.9643C22.8416 25.1742 22.6981 25.3553 22.5104 25.5099C22.3227 25.6624 22.0952 25.7839 21.8258 25.8722C21.5564 25.9606 21.2517 26.0048 20.9116 26.0048C20.4811 26.0048 20.0593 25.9252 19.6486 25.7662C19.2379 25.6071 18.8823 25.3686 18.582 25.0505L18.964 24.5822C19.2864 24.94 19.6199 25.1742 19.9599 25.2846C20.3 25.3951 20.6202 25.4503 20.9205 25.4503L20.9161 25.4481Z" fill="white"/>
<path d="M24.9127 20V25.9135H24.3076V20H24.9127Z" fill="white"/>
<path d="M30.8331 20H31.4205V25.9135H30.9436L27.1411 21.0117V25.9135H26.5537V20H27.0726L30.8331 24.8333V20Z" fill="white"/>
<path d="M38.2324 22.8945V25.2184C37.9498 25.4459 37.6097 25.6314 37.2167 25.7794C36.8214 25.9274 36.3754 26.0003 35.8763 26.0003C35.4347 26.0003 35.0217 25.9274 34.6397 25.7794C34.2577 25.6314 33.9265 25.426 33.6483 25.1631C33.37 24.9003 33.1514 24.5799 32.988 24.2022C32.8268 23.8245 32.7451 23.4092 32.7451 22.9563C32.7451 22.5035 32.8246 22.1235 32.9836 21.7524C33.1426 21.3813 33.359 21.0588 33.635 20.7871C33.911 20.5154 34.2334 20.3011 34.6044 20.1487C34.9754 19.9963 35.3706 19.9189 35.7902 19.9189C36.2672 19.9189 36.6911 19.9918 37.0621 20.1398C37.4331 20.2878 37.7886 20.522 38.1286 20.8467L37.7466 21.2974C37.4397 21.008 37.1372 20.8025 36.8369 20.6811C36.5365 20.5596 36.1877 20.4977 35.7902 20.4977C35.4545 20.4977 35.141 20.5596 34.8451 20.6855C34.5492 20.8114 34.293 20.9815 34.0744 21.2002C33.8558 21.4189 33.6836 21.6773 33.5555 21.9777C33.4274 22.2782 33.3634 22.6051 33.3634 22.9563C33.3634 23.3297 33.4274 23.672 33.5599 23.9769C33.6902 24.2839 33.8669 24.5446 34.0921 24.7589C34.3151 24.9754 34.5801 25.141 34.887 25.2559C35.194 25.3708 35.523 25.4304 35.8741 25.4304C36.1965 25.4304 36.5056 25.3929 36.8015 25.3155C37.0952 25.2382 37.3779 25.1101 37.6428 24.929V23.4313H35.6179V22.8945H38.2302H38.2324Z" fill="white"/>
<path d="M44.0687 25.9135L43.457 24.4423H40.3104L39.6987 25.9135H39.0605L41.5955 20H42.1917L44.7267 25.9135H44.0709H44.0687ZM40.5466 23.8878H43.2185L41.8826 20.6892L40.5466 23.8878Z" fill="white"/>
<path d="M45.7861 25.9135V20H48.3631C49.0034 20 49.5069 20.1701 49.8735 20.5103C50.24 20.8505 50.4211 21.2989 50.4211 21.8556C50.4211 22.4122 50.2378 22.8607 49.8735 23.2008C49.5069 23.541 49.0034 23.7111 48.3631 23.7111H46.389V25.9157H45.7861V25.9135ZM48.3807 20.5523H46.3912V23.1567H48.3807C48.84 23.1567 49.1933 23.033 49.4407 22.7878C49.688 22.5404 49.8094 22.2311 49.8094 21.8556C49.8094 21.48 49.6858 21.1708 49.4407 20.9234C49.1933 20.676 48.84 20.5545 48.3807 20.5545V20.5523Z" fill="white"/>
<path d="M54.4201 19.916C54.833 19.916 55.2239 19.9933 55.5904 20.1458C55.957 20.2982 56.2728 20.5124 56.5422 20.7842C56.8116 21.0559 57.0257 21.3806 57.1847 21.7539C57.3437 22.1294 57.4232 22.5315 57.4232 22.9622C57.4232 23.393 57.3437 23.795 57.1847 24.1661C57.0257 24.5373 56.8116 24.8598 56.5422 25.1315C56.2728 25.4032 55.9548 25.6175 55.5904 25.7699C55.2261 25.9223 54.8352 25.9996 54.4201 25.9996C54.005 25.9996 53.6163 25.9223 53.2498 25.7699C52.8832 25.6175 52.5674 25.4032 52.2981 25.1315C52.0287 24.8598 51.8145 24.535 51.6555 24.1617C51.4965 23.7862 51.417 23.3842 51.417 22.9534C51.417 22.5226 51.4965 22.1206 51.6555 21.7495C51.8145 21.3784 52.0287 21.0559 52.2981 20.7842C52.5674 20.5124 52.8854 20.2982 53.2498 20.1458C53.6141 19.9933 54.005 19.916 54.4201 19.916ZM54.4201 25.4209C54.7491 25.4209 55.0583 25.359 55.3475 25.2331C55.6368 25.1072 55.8885 24.9371 56.1049 24.7184C56.3213 24.4997 56.4914 24.2412 56.615 23.9408C56.7387 23.6404 56.8027 23.3135 56.8027 22.9622C56.8027 22.611 56.7409 22.2819 56.615 21.9792C56.4892 21.6766 56.3213 21.4159 56.1049 21.1972C55.8885 20.9785 55.6368 20.8062 55.3475 20.6825C55.0583 20.5588 54.7491 20.4948 54.4201 20.4948C54.0911 20.4948 53.7819 20.5566 53.4927 20.6825C53.2034 20.8085 52.9517 20.9785 52.7353 21.1972C52.5189 21.4159 52.3488 21.6744 52.2252 21.9748C52.1015 22.2752 52.0375 22.6022 52.0375 22.9534C52.0375 23.3046 52.0993 23.6338 52.2252 23.9364C52.3488 24.239 52.5189 24.5019 52.7353 24.7184C52.9517 24.9371 53.2034 25.1094 53.4927 25.2331C53.7819 25.3568 54.0911 25.4209 54.4201 25.4209Z" fill="white"/>
<path d="M58.7393 25.9135V20H61.0865C61.7335 20 62.237 20.1679 62.5969 20.5059C62.9569 20.8438 63.1379 21.2702 63.1379 21.7871C63.1379 22.2289 63.0054 22.6088 62.7427 22.9269C62.4799 23.245 62.1089 23.4483 61.632 23.5388L63.6569 25.9135H62.884L60.9452 23.6073H59.3465V25.9135H58.7437H58.7393ZM61.0954 20.5523H59.3443V23.0617H61.0954C61.5657 23.0617 61.9212 22.938 62.1619 22.6928C62.4026 22.4454 62.5241 22.1494 62.5241 21.8025C62.5241 21.4557 62.4026 21.1686 62.1619 20.9212C61.9212 20.6737 61.5657 20.5523 61.0954 20.5523Z" fill="white"/>
<path d="M65.2798 25.3701H68.6981V25.9135H64.6748V20H68.6981V20.5434H65.2798V22.5691H68.0445V23.1213H65.2798V25.3679V25.3701Z" fill="white"/>
<path d="M48.0387 14.807H59.3556V13.4087H49.9687V8.99951H57.026V7.58575H49.9687V3.5278H59.3556V2.10962H48.0387V14.807Z" fill="white"/>
<path d="M53.9209 0.0996094L52.3729 1.82042L57.2022 0.0996094H53.9209Z" fill="white"/>
<path d="M78.3415 13.4087V2.10962H76.5749V14.807H88V13.4087H78.3415Z" fill="white"/>
<path d="M66.674 2.10938L60.246 14.8067H62.4254L64.0617 11.5264H71.7704L73.4486 14.8067H75.5928L69.1449 2.10938H66.674ZM64.8831 9.92263L67.9172 3.90309L70.9843 9.92263H64.8831Z" fill="white"/>
<path d="M41.8959 9.51864C44.7952 8.73444 45.0801 6.58508 45.0668 5.8053C44.8924 3.54769 43.3798 2.10742 40.6438 2.10742H32.6503V14.8048H34.4853V9.49655H39.6678L43.4902 14.8048H45.7823C45.7823 14.8048 43.0375 11.224 41.8937 9.51643L41.8959 9.51864ZM40.3965 7.99H34.4853V3.64489H40.6019C41.9952 3.64489 42.7946 4.29876 43.0817 5.12934C43.2738 5.70368 43.1523 6.46358 42.8343 6.9827C42.3198 7.80666 41.3372 7.99 40.3943 7.99H40.3965Z" fill="white"/>
<path d="M21.7213 0C16.5983 0 13.1249 3.62719 13.1249 7.99439C13.1249 12.6068 16.9693 15.8562 21.7213 15.8562C26.4733 15.8562 30.3508 12.6421 30.3508 7.99439C30.3508 3.62719 26.831 0 21.7213 0ZM21.6595 14.2989C18.133 14.2989 15.2094 11.4449 15.2094 8.00102C15.2094 4.55718 17.9939 1.57502 21.8008 1.57502C25.6077 1.57502 28.284 4.55939 28.284 8.00102C28.284 11.4427 25.2168 14.2989 21.6595 14.2989Z" fill="white"/>
<path d="M8.52353 6.63145H9.85064L12.2288 2.10962H10.321L8.52353 6.63145Z" fill="white"/>
<path d="M2.11763 13.4087V2.10962H0.370972V14.807H11.785V13.4087H2.11763Z" fill="white"/>
</g>
<defs>
<clipPath id="clip0_211_7954">
<rect width="88" height="26" fill="white"/>
</clipPath>
</defs>
</svg>
