<svg width="56" height="56" viewBox="0 0 56 56" fill="none" xmlns="http://www.w3.org/2000/svg">
<path d="M28 54.2499C19.096 54.2499 12.894 53.6841 9.16183 53.1871C5.82283 52.7414 3.24917 50.2074 2.76967 46.8649C2.28317 43.4699 1.75 38.1079 1.75 30.9166C1.75 23.7253 2.28317 18.3633 2.76967 14.9683C3.248 11.6269 5.82283 9.09175 9.163 8.64725C12.8928 8.14909 19.0948 7.58325 28 7.58325C36.904 7.58325 43.106 8.14909 46.8382 8.64725C50.1772 9.09175 52.7508 11.6269 53.2303 14.9683C53.7168 18.3633 54.25 23.7253 54.25 30.9166C54.25 38.1079 53.7168 43.4699 53.2303 46.8649C52.752 50.2063 50.1772 52.7414 46.837 53.1871C43.106 53.6841 36.904 54.2499 28 54.2499Z" fill="#D2D5DA"/>
<path d="M39.0832 16.9377C38.4952 16.9377 37.9783 16.9213 37.5245 16.8945C34.8762 16.7393 33.3863 14.5588 33.3035 12.3235C33.2309 10.3443 33.2309 8.36316 33.3035 6.384C33.3852 4.14866 34.8762 1.96816 37.5245 1.813C37.9783 1.78616 38.4952 1.771 39.0832 1.771C39.6712 1.771 40.188 1.78616 40.6418 1.813C43.2902 1.96816 44.78 4.14866 44.8628 6.384C44.9355 8.36316 44.9355 10.3443 44.8628 12.3235C44.7812 14.5588 43.2902 16.7393 40.6418 16.8945C40.1228 16.9242 39.603 16.9386 39.0832 16.9377Z" fill="#9CA3AF"/>
<path d="M16.9168 16.9377C16.3288 16.9377 15.8119 16.9213 15.3581 16.8945C12.7098 16.7393 11.2199 14.5588 11.1371 12.3235C11.0643 10.3443 11.0643 8.36316 11.1371 6.384C11.2188 4.14866 12.7098 1.96816 15.3581 1.813C15.8119 1.78616 16.3288 1.771 16.9168 1.771C17.5048 1.771 18.0216 1.78616 18.4754 1.813C21.1238 1.96816 22.6136 4.14866 22.6964 6.384C22.7691 8.36316 22.7691 10.3443 22.6964 12.3235C22.6148 14.5588 21.1238 16.7393 18.4754 16.8945C17.9564 16.9242 17.4366 16.9386 16.9168 16.9377Z" fill="#9CA3AF"/>
<path fill-rule="evenodd" clip-rule="evenodd" d="M40.0238 29.1177C40.2808 30.1818 40.3185 31.287 40.1346 32.3661C39.9506 33.4452 39.5489 34.4756 38.9539 35.3944C36.9566 38.4767 33.7961 40.9104 30.6496 43.1095C29.8723 43.6514 28.9476 43.9419 28.0001 43.9419C27.0526 43.9419 26.1279 43.6514 25.3506 43.1095C22.2041 40.9104 19.0436 38.4767 17.0463 35.3932C16.4513 34.4744 16.0495 33.444 15.8656 32.3649C15.6817 31.2858 15.7194 30.1806 15.9764 29.1165C17.0929 24.2609 23.2739 22.2764 27.1239 25.5314C27.3398 25.7122 27.5393 25.914 27.7446 26.1205L28.0001 26.3772L28.2568 26.1205C28.4609 25.914 28.6604 25.7122 28.8763 25.5314C32.7263 22.2764 38.9073 24.2609 40.0238 29.1177Z" fill="#9CA3AF"/>
</svg>
