<svg xmlns="http://www.w3.org/2000/svg" width="28" height="28" viewBox="0 0 28 28" fill="none">
  <path d="M18.6318 26.5415H9.2985C5.3085 26.5415 3.75684 24.9898 3.75684 20.9998V11.6665C3.75684 11.1882 4.1535 10.7915 4.63184 10.7915H23.2985C23.7768 10.7915 24.1735 11.1882 24.1735 11.6665V20.9998C24.1735 24.9898 22.6218 26.5415 18.6318 26.5415ZM5.50684 12.5415V20.9998C5.50684 24.0098 6.2885 24.7915 9.2985 24.7915H18.6318C21.6418 24.7915 22.4235 24.0098 22.4235 20.9998V12.5415H5.50684Z" fill="#F9FAFB"/>
  <path d="M22.7498 12.5418H5.24984C3.20817 12.5418 2.0415 11.3752 2.0415 9.3335V8.16683C2.0415 6.12516 3.20817 4.9585 5.24984 4.9585H22.7498C24.7332 4.9585 25.9582 6.1835 25.9582 8.16683V9.3335C25.9582 11.3168 24.7332 12.5418 22.7498 12.5418ZM5.24984 6.7085C4.18817 6.7085 3.7915 7.10516 3.7915 8.16683V9.3335C3.7915 10.3952 4.18817 10.7918 5.24984 10.7918H22.7498C23.7765 10.7918 24.2082 10.3602 24.2082 9.3335V8.16683C24.2082 7.14016 23.7765 6.7085 22.7498 6.7085H5.24984Z" fill="#F9FAFB"/>
  <path d="M13.5798 6.70852H7.13978C6.89478 6.70852 6.66145 6.60352 6.49812 6.42852C5.78645 5.64686 5.80978 4.44519 6.55645 3.69852L8.21312 2.04186C8.98312 1.27186 10.2548 1.27186 11.0248 2.04186L14.1981 5.21519C14.4431 5.46019 14.5248 5.84519 14.3848 6.17185C14.2565 6.49852 13.9415 6.70852 13.5798 6.70852ZM7.78145 4.95852H11.4798L9.78812 3.27852C9.69478 3.18519 9.54312 3.18519 9.44978 3.27852L7.79312 4.93519C7.79312 4.94686 7.78145 4.94686 7.78145 4.95852Z" fill="#F9FAFB"/>
  <path d="M20.8484 6.70852H14.4084C14.0584 6.70852 13.7318 6.49852 13.6034 6.17185C13.4634 5.84519 13.5451 5.47186 13.7901 5.21519L16.9634 2.04186C17.7334 1.27186 19.0051 1.27186 19.7751 2.04186L21.4318 3.69852C22.1784 4.44519 22.2134 5.64686 21.4901 6.42852C21.3268 6.60352 21.0934 6.70852 20.8484 6.70852ZM16.5318 4.95852H20.2301C20.2184 4.94686 20.2184 4.94686 20.2068 4.93519L18.5501 3.27852C18.4568 3.18519 18.3051 3.18519 18.2118 3.27852L16.5318 4.95852Z" fill="#F9FAFB"/>
  <path d="M11.5968 19.7165C11.2702 19.7165 10.9318 19.6348 10.6285 19.4715C9.96351 19.1098 9.55518 18.4215 9.55518 17.6748V11.6665C9.55518 11.1882 9.95184 10.7915 10.4302 10.7915H17.4768C17.9552 10.7915 18.3518 11.1882 18.3518 11.6665V17.6515C18.3518 18.4098 17.9435 19.0982 17.2785 19.4482C16.6135 19.8098 15.8085 19.7632 15.1785 19.3432L14.1402 18.6432C14.0468 18.5732 13.9185 18.5732 13.8135 18.6432L12.7168 19.3665C12.3785 19.5998 11.9818 19.7165 11.5968 19.7165ZM11.3052 12.5415V17.6632C11.3052 17.8148 11.3985 17.8848 11.4568 17.9198C11.5152 17.9548 11.6318 17.9898 11.7602 17.9082L12.8568 17.1848C13.5452 16.7298 14.4318 16.7298 15.1085 17.1848L16.1468 17.8848C16.2752 17.9665 16.3918 17.9315 16.4502 17.8965C16.5085 17.8615 16.6018 17.7915 16.6018 17.6398V12.5298H11.3052V12.5415Z" fill="#F9FAFB"/>
</svg>