<svg width="120" height="172" viewBox="0 0 120 172" fill="none" xmlns="http://www.w3.org/2000/svg">
  <path d="M115.421 30.1727L66.6919 1.9852C61.9425 -0.758779 54.3027 -0.638862 49.6094 2.22503L3.48315 30.4196C1.0488 31.9009 -0.101723 33.876 0.0105231 35.8229C-0.0035077 36.0063 -0.0035077 36.1897 0.0105231 36.3731C-0.0035077 36.5565 -0.0035077 36.7399 0.0105231 36.9233C-0.0035077 37.1067 -0.0035077 37.2901 0.0105231 37.4735C-0.0035077 37.6569 -0.0035077 37.8403 0.0105231 38.0237C-0.0035077 38.2071 -0.0035077 38.3905 0.0105231 38.5739C-0.0035077 38.7573 -0.0035077 38.9407 0.0105231 39.1241C-0.0035077 39.3075 -0.0035077 39.4909 0.0105231 39.6743C-0.0035077 39.8577 -0.0035077 40.0411 0.0105231 40.2245C-0.0035077 40.4079 -0.0035077 40.5913 0.0105231 40.7747C-0.0035077 40.9581 -0.0035077 41.1415 0.0105231 41.3249C-0.0035077 41.5083 -0.0035077 41.6917 0.0105231 41.8751C-0.0035077 42.0585 -0.0035077 42.2419 0.0105231 42.4253C-0.0035077 42.6087 -0.0035077 42.7921 0.0105231 42.9755C-0.0035077 43.1589 -0.0035077 43.3423 0.0105231 43.5257C-0.0035077 43.7092 -0.0035077 43.8926 0.0105231 44.076C-0.0035077 44.2594 -0.0035077 44.4428 0.0105231 44.6262C-0.0035077 44.8096 -0.0035077 44.993 0.0105231 45.1764C-0.0035077 45.3598 -0.0035077 45.5432 0.0105231 45.7266C-0.0035077 45.91 -0.0035077 46.0934 0.0105231 46.2768C-0.0035077 46.4602 -0.0035077 46.6436 0.0105231 46.827C-0.0035077 47.0104 -0.0035077 47.1938 0.0105231 47.3772C-0.0035077 47.5606 -0.0035077 47.744 0.0105231 47.9274C-0.0035077 48.1108 -0.0035077 48.2942 0.0105231 48.4776C-0.0035077 48.661 -0.0035077 48.8444 0.0105231 49.0278C-0.0035077 49.2112 -0.0035077 49.3946 0.0105231 49.578C-0.0035077 49.7614 -0.0035077 49.9448 0.0105231 50.1282C-0.0035077 50.3116 -0.0035077 50.495 0.0105231 50.6784C-0.0035077 50.8618 -0.0035077 51.0452 0.0105231 51.2286C-0.0035077 51.412 -0.0035077 51.5954 0.0105231 51.7788C-0.0035077 51.9622 -0.0035077 52.1456 0.0105231 52.329C-0.0035077 52.5124 -0.0035077 52.6959 0.0105231 52.8793C-0.0035077 53.0627 -0.0035077 53.2461 0.0105231 53.4295C-0.0035077 53.6129 -0.0035077 53.7963 0.0105231 53.9797C-0.0035077 54.1631 -0.0035077 54.3465 0.0105231 54.5299C-0.0035077 54.7133 -0.0035077 54.8967 0.0105231 55.0801C-0.0035077 55.2635 -0.0035077 55.4469 0.0105231 55.6303C-0.0035077 55.8137 -0.0035077 55.9971 0.0105231 56.1805C-0.0035077 56.3639 -0.0035077 56.5473 0.0105231 56.7307C-0.0035077 56.9141 -0.0035077 57.0975 0.0105231 57.2809C-0.0035077 57.4643 -0.0035077 57.6477 0.0105231 57.8311C-0.0035077 58.0145 -0.0035077 58.1979 0.0105231 58.3813C-0.0035077 58.5647 -0.0035077 58.7481 0.0105231 58.9315C-0.0035077 59.1149 -0.0035077 59.2983 0.0105231 59.4817C-0.0035077 59.6651 -0.0035077 59.8485 0.0105231 60.0319C-0.0035077 60.2153 -0.0035077 60.3987 0.0105231 60.5821C-0.0035077 60.7655 -0.0035077 60.9489 0.0105231 61.1323C-0.0035077 61.3157 -0.0035077 61.4991 0.0105231 61.6825C-0.0035077 61.8659 -0.0035077 62.0494 0.0105231 62.2328C-0.0035077 62.4162 -0.0035077 62.5996 0.0105231 62.783C-0.0035077 62.9664 -0.0035077 63.1498 0.0105231 63.3332C-0.0035077 63.5166 -0.0035077 63.7 0.0105231 63.8834C-0.0035077 64.0668 -0.0035077 64.2502 0.0105231 64.4336C-0.0035077 64.617 -0.0035077 64.8004 0.0105231 64.9838C-0.0035077 65.1672 -0.0035077 65.3506 0.0105231 65.534C-0.0035077 65.7174 -0.0035077 65.9008 0.0105231 66.0842C-0.0035077 66.2676 -0.0035077 66.451 0.0105231 66.6344C-0.0035077 66.8178 -0.0035077 67.0012 0.0105231 67.1846C-0.0035077 67.368 -0.0035077 67.5514 0.0105231 67.7348C-0.0035077 67.9182 -0.0035077 68.1016 0.0105231 68.285C-0.0035077 68.4684 -0.0035077 68.6518 0.0105231 68.8352C-0.0035077 69.0186 -0.0035077 69.202 0.0105231 69.3854C-0.0035077 69.5688 -0.0035077 69.7522 0.0105231 69.9356C-0.0035077 70.119 -0.0035077 70.3024 0.0105231 70.4858C-0.0035077 70.6692 -0.0035077 70.8526 0.0105231 71.036C-0.0035077 71.2195 -0.0035077 71.4029 0.0105231 71.5863C-0.0035077 71.7697 -0.0035077 71.9531 0.0105231 72.1365C-0.0035077 72.3199 -0.0035077 72.5033 0.0105231 72.6867C-0.0035077 72.8701 -0.0035077 73.0535 0.0105231 73.2369C-0.0035077 73.4203 -0.0035077 73.6037 0.0105231 73.7871C-0.0035077 73.9705 -0.0035077 74.1539 0.0105231 74.3373C-0.0035077 74.5207 -0.0035077 74.7041 0.0105231 74.8875C-0.0035077 75.0709 -0.0035077 75.2543 0.0105231 75.4377C-0.0035077 75.6211 -0.0035077 75.8045 0.0105231 75.9879C-0.0035077 76.1713 -0.0035077 76.3547 0.0105231 76.5381C-0.0035077 76.7215 -0.0035077 76.9049 0.0105231 77.0883C-0.0035077 77.2717 -0.0035077 77.4551 0.0105231 77.6385C-0.0035077 77.8219 -0.0035077 78.0053 0.0105231 78.1887C-0.0035077 78.3721 -0.0035077 78.5555 0.0105231 78.7389C-0.0035077 78.9223 -0.0035077 79.1057 0.0105231 79.2891C-0.0035077 79.4725 -0.0035077 79.6559 0.0105231 79.8393C-0.0035077 80.0228 -0.0035077 80.2061 0.0105231 80.3895C-0.0035077 80.573 -0.0035077 80.7564 0.0105231 80.9398C-0.0035077 81.1232 -0.0035077 81.3066 0.0105231 81.49C-0.0035077 81.6734 -0.0035077 81.8568 0.0105231 82.0402C-0.0035077 82.2236 -0.0035077 82.407 0.0105231 82.5904C-0.0035077 82.7738 -0.0035077 82.9572 0.0105231 83.1406C-0.0035077 83.324 -0.0035077 83.5074 0.0105231 83.6908C-0.0035077 83.8742 -0.0035077 84.0576 0.0105231 84.241C-0.0035077 84.4244 -0.0035077 84.6078 0.0105231 84.7912C-0.0035077 84.9746 -0.0035077 85.158 0.0105231 85.3414C-0.0035077 85.5248 -0.0035077 85.7082 0.0105231 85.8916C-0.0035077 86.075 -0.0035077 86.2584 0.0105231 86.4418C-0.0035077 86.6252 -0.0035077 86.8086 0.0105231 86.992C-0.0035077 87.1754 -0.0035077 87.3588 0.0105231 87.5422C-0.0035077 87.7256 -0.0035077 87.909 0.0105231 88.0924C-0.0035077 88.2758 -0.0035077 88.4592 0.0105231 88.6426C-0.0035077 88.826 -0.0035077 89.0094 0.0105231 89.1928C-0.0035077 89.3762 -0.0035077 89.5597 0.0105231 89.7431C-0.0035077 89.9265 -0.0035077 90.1099 0.0105231 90.2933C-0.0035077 90.4767 -0.0035077 90.6601 0.0105231 90.8435C-0.0035077 91.0269 -0.0035077 91.2103 0.0105231 91.3937C-0.0035077 91.5771 -0.0035077 91.7605 0.0105231 91.9439C-0.0035077 92.1273 -0.0035077 92.3107 0.0105231 92.4941C-0.0035077 92.6775 -0.0035077 92.8609 0.0105231 93.0443C-0.0035077 93.2277 -0.0035077 93.4111 0.0105231 93.5945C-0.0035077 93.7779 -0.0035077 93.9613 0.0105231 94.1447C-0.0035077 94.3281 -0.0035077 94.5115 0.0105231 94.6949C-0.0035077 94.8783 -0.0035077 95.0617 0.0105231 95.2451C-0.0035077 95.4285 -0.0035077 95.6119 0.0105231 95.7953C-0.0035077 95.9787 -0.0035077 96.1621 0.0105231 96.3455C-0.0035077 96.5289 -0.0035077 96.7123 0.0105231 96.8957C-0.0035077 97.0791 -0.0035077 97.2625 0.0105231 97.4459C-0.0035077 97.6293 -0.0035077 97.8127 0.0105231 97.9961C-0.0035077 98.1795 -0.0035077 98.363 0.0105231 98.5464C-0.0035077 98.7298 -0.0035077 98.9132 0.0105231 99.0966C-0.0035077 99.28 -0.0035077 99.4634 0.0105231 99.6468C-0.0035077 99.8302 -0.0035077 100.014 0.0105231 100.197C-0.0035077 100.38 -0.0035077 100.564 0.0105231 100.747C-0.0035077 100.931 -0.0035077 101.114 0.0105231 101.297C-0.0035077 101.481 -0.0035077 101.664 0.0105231 101.848C-0.0035077 102.031 -0.0035077 102.214 0.0105231 102.398C-0.0035077 102.581 -0.0035077 102.765 0.0105231 102.948C-0.0035077 103.131 -0.0035077 103.315 0.0105231 103.498C-0.0035077 103.682 -0.0035077 103.865 0.0105231 104.048C-0.0035077 104.232 -0.0035077 104.415 0.0105231 104.599C-0.0035077 104.782 -0.0035077 104.965 0.0105231 105.149C-0.0035077 105.332 -0.0035077 105.516 0.0105231 105.699C-0.0035077 105.882 -0.0035077 106.066 0.0105231 106.249C-0.0035077 106.433 -0.0035077 106.616 0.0105231 106.799C-0.0035077 106.983 -0.0035077 107.166 0.0105231 107.35C-0.0035077 107.533 -0.0035077 107.716 0.0105231 107.9C-0.0035077 108.083 -0.0035077 108.267 0.0105231 108.45C-0.0035077 108.633 -0.0035077 108.817 0.0105231 109C-0.0035077 109.184 -0.0035077 109.367 0.0105231 109.55C-0.0035077 109.734 -0.0035077 109.917 0.0105231 110.101C-0.0035077 110.284 -0.0035077 110.467 0.0105231 110.651C-0.0035077 110.834 -0.0035077 111.018 0.0105231 111.201C-0.0035077 111.384 -0.0035077 111.568 0.0105231 111.751C-0.0035077 111.935 -0.0035077 112.118 0.0105231 112.302C-0.0035077 112.485 -0.0035077 112.668 0.0105231 112.852C-0.0035077 113.035 -0.0035077 113.219 0.0105231 113.402C-0.0035077 113.585 -0.0035077 113.769 0.0105231 113.952C-0.0035077 114.136 -0.0035077 114.319 0.0105231 114.502C-0.0035077 114.686 -0.0035077 114.869 0.0105231 115.053C-0.0035077 115.236 -0.0035077 115.419 0.0105231 115.603C-0.0035077 115.786 -0.0035077 115.97 0.0105231 116.153C-0.0035077 116.336 -0.0035077 116.52 0.0105231 116.703C-0.0035077 116.887 -0.0035077 117.07 0.0105231 117.253C-0.0035077 117.437 -0.0035077 117.62 0.0105231 117.804C-0.0035077 117.987 -0.0035077 118.17 0.0105231 118.354C-0.0035077 118.537 -0.0035077 118.721 0.0105231 118.904C-0.0035077 119.087 -0.0035077 119.271 0.0105231 119.454C-0.0035077 119.638 -0.0035077 119.821 0.0105231 120.004C-0.0035077 120.188 -0.0035077 120.371 0.0105231 120.555C-0.0035077 120.738 -0.0035077 120.921 0.0105231 121.105C-0.0035077 121.288 -0.0035077 121.472 0.0105231 121.655C-0.0035077 121.838 -0.0035077 122.022 0.0105231 122.205C-0.0035077 122.389 -0.0035077 122.572 0.0105231 122.755C-0.0035077 122.939 -0.0035077 123.122 0.0105231 123.306C-0.0035077 123.489 -0.0035077 123.672 0.0105231 123.856C-0.0035077 124.039 -0.0035077 124.223 0.0105231 124.406C-0.0035077 124.589 -0.0035077 124.773 0.0105231 124.956C-0.0035077 125.14 -0.0035077 125.323 0.0105231 125.506C-0.0035077 125.69 -0.0035077 125.873 0.0105231 126.057C-0.0035077 126.24 -0.0035077 126.423 0.0105231 126.607C-0.0035077 126.79 -0.0035077 126.974 0.0105231 127.157C-0.0035077 127.34 -0.0035077 127.524 0.0105231 127.707C-0.0035077 127.891 -0.0035077 128.074 0.0105231 128.257C-0.0035077 128.441 -0.0035077 128.624 0.0105231 128.808C-0.0035077 128.991 -0.0035077 129.174 0.0105231 129.358C-0.0035077 129.541 -0.0035077 129.725 0.0105231 129.908C-0.0035077 130.091 -0.0035077 130.275 0.0105231 130.458C-0.0035077 130.642 -0.0035077 130.825 0.0105231 131.008C-0.0035077 131.192 -0.0035077 131.375 0.0105231 131.559C-0.0035077 131.742 -0.0035077 131.926 0.0105231 132.109C-0.0035077 132.292 -0.0035077 132.476 0.0105231 132.659C-0.0035077 132.843 -0.0035077 133.026 0.0105231 133.209C-0.0035077 133.393 -0.0035077 133.576 0.0105231 133.76C-0.0035077 133.943 -0.0035077 134.126 0.0105231 134.31C-0.0035077 134.493 -0.0035077 134.677 0.0105231 134.86C-0.115754 136.765 0.971634 138.69 3.30776 140.15L49.427 169.029C54.2186 172.027 62.0337 172.154 66.8743 169.283L115.617 140.404C118.192 138.881 119.392 136.863 119.258 134.86C119.272 134.677 119.272 134.493 119.258 134.31C119.272 134.126 119.272 133.943 119.258 133.76C119.272 133.576 119.272 133.393 119.258 133.209C119.272 133.026 119.272 132.843 119.258 132.659C119.272 132.476 119.272 132.292 119.258 132.109C119.272 131.926 119.272 131.742 119.258 131.559C119.272 131.375 119.272 131.192 119.258 131.008C119.272 130.825 119.272 130.642 119.258 130.458C119.272 130.275 119.272 130.091 119.258 129.908C119.272 129.725 119.272 129.541 119.258 129.358C119.272 129.174 119.272 128.991 119.258 128.808C119.272 128.624 119.272 128.441 119.258 128.257C119.272 128.074 119.272 127.891 119.258 127.707C119.272 127.524 119.272 127.34 119.258 127.157C119.272 126.974 119.272 126.79 119.258 126.607C119.272 126.423 119.272 126.24 119.258 126.057C119.272 125.873 119.272 125.69 119.258 125.506C119.272 125.323 119.272 125.14 119.258 124.956C119.272 124.773 119.272 124.589 119.258 124.406C119.272 124.223 119.272 124.039 119.258 123.856C119.272 123.672 119.272 123.489 119.258 123.306C119.272 123.122 119.272 122.939 119.258 122.755C119.272 122.572 119.272 122.389 119.258 122.205C119.272 122.022 119.272 121.838 119.258 121.655C119.272 121.472 119.272 121.288 119.258 121.105C119.272 120.921 119.272 120.738 119.258 120.555C119.272 120.371 119.272 120.188 119.258 120.004C119.272 119.821 119.272 119.638 119.258 119.454C119.272 119.271 119.272 119.087 119.258 118.904C119.272 118.721 119.272 118.537 119.258 118.354C119.272 118.17 119.272 117.987 119.258 117.804C119.272 117.62 119.272 117.437 119.258 117.253C119.272 117.07 119.272 116.887 119.258 116.703C119.272 116.52 119.272 116.336 119.258 116.153C119.272 115.97 119.272 115.786 119.258 115.603C119.272 115.419 119.272 115.236 119.258 115.053C119.272 114.869 119.272 114.686 119.258 114.502C119.272 114.319 119.272 114.136 119.258 113.952C119.272 113.769 119.272 113.585 119.258 113.402C119.272 113.219 119.272 113.035 119.258 112.852C119.272 112.668 119.272 112.485 119.258 112.302C119.272 112.118 119.272 111.935 119.258 111.751C119.272 111.568 119.272 111.384 119.258 111.201C119.272 111.018 119.272 110.834 119.258 110.651C119.272 110.467 119.272 110.284 119.258 110.101C119.272 109.917 119.272 109.734 119.258 109.55C119.272 109.367 119.272 109.184 119.258 109C119.272 108.817 119.272 108.633 119.258 108.45C119.272 108.267 119.272 108.083 119.258 107.9C119.272 107.716 119.272 107.533 119.258 107.35C119.272 107.166 119.272 106.983 119.258 106.799C119.272 106.616 119.272 106.433 119.258 106.249C119.272 106.066 119.272 105.882 119.258 105.699C119.272 105.516 119.272 105.332 119.258 105.149C119.272 104.965 119.272 104.782 119.258 104.599C119.272 104.415 119.272 104.232 119.258 104.048C119.272 103.865 119.272 103.682 119.258 103.498C119.272 103.315 119.272 103.131 119.258 102.948C119.272 102.765 119.272 102.581 119.258 102.398C119.272 102.214 119.272 102.031 119.258 101.848C119.272 101.664 119.272 101.481 119.258 101.297C119.272 101.114 119.272 100.931 119.258 100.747C119.272 100.564 119.272 100.38 119.258 100.197C119.272 100.014 119.272 99.8302 119.258 99.6468C119.272 99.4634 119.272 99.28 119.258 99.0966C119.272 98.9132 119.272 98.7298 119.258 98.5464C119.272 98.363 119.272 98.1795 119.258 97.9961C119.272 97.8127 119.272 97.6293 119.258 97.4459C119.272 97.2625 119.272 97.0791 119.258 96.8957C119.272 96.7123 119.272 96.5289 119.258 96.3455C119.272 96.1621 119.272 95.9787 119.258 95.7953C119.272 95.6119 119.272 95.4285 119.258 95.2451C119.272 95.0617 119.272 94.8783 119.258 94.6949C119.272 94.5115 119.272 94.3281 119.258 94.1447C119.272 93.9613 119.272 93.7779 119.258 93.5945C119.272 93.4111 119.272 93.2277 119.258 93.0443C119.272 92.8609 119.272 92.6775 119.258 92.4941C119.272 92.3107 119.272 92.1273 119.258 91.9439C119.272 91.7605 119.272 91.5771 119.258 91.3937C119.272 91.2103 119.272 91.0269 119.258 90.8435C119.272 90.6601 119.272 90.4767 119.258 90.2933C119.272 90.1099 119.272 89.9265 119.258 89.7431C119.272 89.5597 119.272 89.3762 119.258 89.1928C119.272 89.0094 119.272 88.826 119.258 88.6426C119.272 88.4592 119.272 88.2758 119.258 88.0924C119.272 87.909 119.272 87.7256 119.258 87.5422C119.272 87.3588 119.272 87.1754 119.258 86.992C119.272 86.8086 119.272 86.6252 119.258 86.4418C119.272 86.2584 119.272 86.075 119.258 85.8916C119.272 85.7082 119.272 85.5248 119.258 85.3414C119.272 85.158 119.272 84.9746 119.258 84.7912C119.272 84.6078 119.272 84.4244 119.258 84.241C119.272 84.0576 119.272 83.8742 119.258 83.6908C119.272 83.5074 119.272 83.324 119.258 83.1406C119.272 82.9572 119.272 82.7738 119.258 82.5904C119.272 82.407 119.272 82.2236 119.258 82.0402C119.272 81.8568 119.272 81.6734 119.258 81.49C119.272 81.3066 119.272 81.1232 119.258 80.9398C119.272 80.7564 119.272 80.573 119.258 80.3895C119.272 80.2061 119.272 80.0228 119.258 79.8393C119.272 79.6559 119.272 79.4725 119.258 79.2891C119.272 79.1057 119.272 78.9223 119.258 78.7389C119.272 78.5555 119.272 78.3721 119.258 78.1887C119.272 78.0053 119.272 77.8219 119.258 77.6385C119.272 77.4551 119.272 77.2717 119.258 77.0883C119.272 76.9049 119.272 76.7215 119.258 76.5381C119.272 76.3547 119.272 76.1713 119.258 75.9879C119.272 75.8045 119.272 75.6211 119.258 75.4377C119.272 75.2543 119.272 75.0709 119.258 74.8875C119.272 74.7041 119.272 74.5207 119.258 74.3373C119.272 74.1539 119.272 73.9705 119.258 73.7871C119.272 73.6037 119.272 73.4203 119.258 73.2369C119.272 73.0535 119.272 72.8701 119.258 72.6867C119.272 72.5033 119.272 72.3199 119.258 72.1365C119.272 71.9531 119.272 71.7697 119.258 71.5863C119.272 71.4029 119.272 71.2195 119.258 71.036C119.272 70.8526 119.272 70.6692 119.258 70.4858C119.272 70.3024 119.272 70.119 119.258 69.9356C119.272 69.7522 119.272 69.5688 119.258 69.3854C119.272 69.202 119.272 69.0186 119.258 68.8352C119.272 68.6518 119.272 68.4684 119.258 68.285C119.272 68.1016 119.272 67.9182 119.258 67.7348C119.272 67.5514 119.272 67.368 119.258 67.1846C119.272 67.0012 119.272 66.8178 119.258 66.6344C119.272 66.451 119.272 66.2676 119.258 66.0842C119.272 65.9008 119.272 65.7174 119.258 65.534C119.272 65.3506 119.272 65.1672 119.258 64.9838C119.272 64.8004 119.272 64.617 119.258 64.4336C119.272 64.2502 119.272 64.0668 119.258 63.8834C119.272 63.7 119.272 63.5166 119.258 63.3332C119.272 63.1498 119.272 62.9664 119.258 62.783C119.272 62.5996 119.272 62.4162 119.258 62.2328C119.272 62.0494 119.272 61.8659 119.258 61.6825C119.272 61.4991 119.272 61.3157 119.258 61.1323C119.272 60.9489 119.272 60.7655 119.258 60.5821C119.272 60.3987 119.272 60.2153 119.258 60.0319C119.272 59.8485 119.272 59.6651 119.258 59.4817C119.272 59.2983 119.272 59.1149 119.258 58.9315C119.272 58.7481 119.272 58.5647 119.258 58.3813C119.272 58.1979 119.272 58.0145 119.258 57.8311C119.272 57.6477 119.272 57.4643 119.258 57.2809C119.272 57.0975 119.272 56.9141 119.258 56.7307C119.272 56.5473 119.272 56.3639 119.258 56.1805C119.272 55.9971 119.272 55.8137 119.258 55.6303C119.272 55.4469 119.272 55.2635 119.258 55.0801C119.272 54.8967 119.272 54.7133 119.258 54.5299C119.272 54.3465 119.272 54.1631 119.258 53.9797C119.272 53.7963 119.272 53.6129 119.258 53.4295C119.272 53.2461 119.272 53.0627 119.258 52.8793C119.272 52.6959 119.272 52.5124 119.258 52.329C119.272 52.1456 119.272 51.9622 119.258 51.7788C119.272 51.5954 119.272 51.412 119.258 51.2286C119.272 51.0452 119.272 50.8618 119.258 50.6784C119.272 50.495 119.272 50.3116 119.258 50.1282C119.272 49.9448 119.272 49.7614 119.258 49.578C119.272 49.3946 119.272 49.2112 119.258 49.0278C119.272 48.8444 119.272 48.661 119.258 48.4776C119.272 48.2942 119.272 48.1108 119.258 47.9274C119.272 47.744 119.272 47.5606 119.258 47.3772C119.272 47.1938 119.272 47.0104 119.258 46.827C119.272 46.6436 119.272 46.4602 119.258 46.2768C119.272 46.0934 119.272 45.91 119.258 45.7266C119.272 45.5432 119.272 45.3598 119.258 45.1764C119.272 44.993 119.272 44.8096 119.258 44.6262C119.272 44.4428 119.272 44.2594 119.258 44.076C119.272 43.8926 119.272 43.7092 119.258 43.5257C119.272 43.3423 119.272 43.1589 119.258 42.9755C119.272 42.7921 119.272 42.6087 119.258 42.4253C119.272 42.2419 119.272 42.0585 119.258 41.8751C119.272 41.6917 119.272 41.5083 119.258 41.3249C119.272 41.1415 119.272 40.9581 119.258 40.7747C119.272 40.5913 119.272 40.4079 119.258 40.2245C119.272 40.0411 119.272 39.8577 119.258 39.6743C119.272 39.4909 119.272 39.3075 119.258 39.1241C119.272 38.9407 119.272 38.7573 119.258 38.5739C119.272 38.3905 119.272 38.2071 119.258 38.0237C119.272 37.8403 119.272 37.6569 119.258 37.4735C119.272 37.2901 119.272 37.1067 119.258 36.9233C119.272 36.7399 119.272 36.5565 119.258 36.3731C119.272 36.1897 119.272 36.0063 119.258 35.8229C119.378 33.7843 118.101 31.7175 115.428 30.1656L115.421 30.1727Z" fill="url(#paint0_linear_359_5336)"/>
  <defs>
    <linearGradient id="paint0_linear_359_5336" x1="59.6344" y1="70.8879" x2="59.6344" y2="171.359" gradientUnits="userSpaceOnUse">
      <stop stop-color="#003499"/>
      <stop offset="0.690972" stop-color="#05206A"/>
      <stop offset="1" stop-color="#041E6A"/>
    </linearGradient>
  </defs>
</svg>
