<svg width="84" height="120" viewBox="0 0 84 120" fill="none" xmlns="http://www.w3.org/2000/svg">
<path d="M80.6115 21.0042L46.5785 1.38196C43.2614 -0.528211 37.9257 -0.444733 34.6479 1.54892L2.43268 21.176C0.732497 22.2072 -0.0710449 23.5822 0.00734947 24.9375C-0.00244982 25.0651 -0.00244982 25.1928 0.00734947 25.3205C-0.00244982 25.4482 -0.00244982 25.5758 0.00734947 25.7035C-0.00244982 25.8312 -0.00244982 25.9588 0.00734947 26.0865C-0.00244982 26.2142 -0.00244982 26.3419 0.00734947 26.4695C-0.00244982 26.5972 -0.00244982 26.7249 0.00734947 26.8525C-0.00244982 26.9802 -0.00244982 27.1079 0.00734947 27.2356C-0.00244982 27.3632 -0.00244982 27.4909 0.00734947 27.6186C-0.00244982 27.7463 -0.00244982 27.8739 0.00734947 28.0016C-0.00244982 28.1293 -0.00244982 28.2569 0.00734947 28.3846C-0.00244982 28.5123 -0.00244982 28.64 0.00734947 28.7676C-0.00244982 28.8953 -0.00244982 29.023 0.00734947 29.1506C-0.00244982 29.2783 -0.00244982 29.406 0.00734947 29.5337C-0.00244982 29.6613 -0.00244982 29.789 0.00734947 29.9167C-0.00244982 30.0443 -0.00244982 30.172 0.00734947 30.2997C-0.00244982 30.4274 -0.00244982 30.555 0.00734947 30.6827C-0.00244982 30.8104 -0.00244982 30.9381 0.00734947 31.0657C-0.00244982 31.1934 -0.00244982 31.3211 0.00734947 31.4487C-0.00244982 31.5764 -0.00244982 31.7041 0.00734947 31.8318C-0.00244982 31.9594 -0.00244982 32.0871 0.00734947 32.2148C-0.00244982 32.3424 -0.00244982 32.4701 0.00734947 32.5978C-0.00244982 32.7255 -0.00244982 32.8531 0.00734947 32.9808C-0.00244982 33.1085 -0.00244982 33.2361 0.00734947 33.3638C-0.00244982 33.4915 -0.00244982 33.6192 0.00734947 33.7468C-0.00244982 33.8745 -0.00244982 34.0022 0.00734947 34.1299C-0.00244982 34.2575 -0.00244982 34.3852 0.00734947 34.5129C-0.00244982 34.6405 -0.00244982 34.7682 0.00734947 34.8959C-0.00244982 35.0236 -0.00244982 35.1512 0.00734947 35.2789C-0.00244982 35.4066 -0.00244982 35.5342 0.00734947 35.6619C-0.00244982 35.7896 -0.00244982 35.9173 0.00734947 36.0449C-0.00244982 36.1726 -0.00244982 36.3003 0.00734947 36.428C-0.00244982 36.5556 -0.00244982 36.6833 0.00734947 36.811C-0.00244982 36.9386 -0.00244982 37.0663 0.00734947 37.194C-0.00244982 37.3217 -0.00244982 37.4493 0.00734947 37.577C-0.00244982 37.7047 -0.00244982 37.8323 0.00734947 37.96C-0.00244982 38.0877 -0.00244982 38.2154 0.00734947 38.343C-0.00244982 38.4707 -0.00244982 38.5984 0.00734947 38.7261C-0.00244982 38.8537 -0.00244982 38.9814 0.00734947 39.1091C-0.00244982 39.2367 -0.00244982 39.3644 0.00734947 39.4921C-0.00244982 39.6198 -0.00244982 39.7474 0.00734947 39.8751C-0.00244982 40.0028 -0.00244982 40.1304 0.00734947 40.2581C-0.00244982 40.3858 -0.00244982 40.5135 0.00734947 40.6411C-0.00244982 40.7688 -0.00244982 40.8965 0.00734947 41.0242C-0.00244982 41.1518 -0.00244982 41.2795 0.00734947 41.4072C-0.00244982 41.5348 -0.00244982 41.6625 0.00734947 41.7902C-0.00244982 41.9179 -0.00244982 42.0455 0.00734947 42.1732C-0.00244982 42.3009 -0.00244982 42.4285 0.00734947 42.5562C-0.00244982 42.6839 -0.00244982 42.8116 0.00734947 42.9392C-0.00244982 43.0669 -0.00244982 43.1946 0.00734947 43.3223C-0.00244982 43.4499 -0.00244982 43.5776 0.00734947 43.7053C-0.00244982 43.8329 -0.00244982 43.9606 0.00734947 44.0883C-0.00244982 44.216 -0.00244982 44.3436 0.00734947 44.4713C-0.00244982 44.599 -0.00244982 44.7266 0.00734947 44.8543C-0.00244982 44.982 -0.00244982 45.1097 0.00734947 45.2373C-0.00244982 45.365 -0.00244982 45.4927 0.00734947 45.6203C-0.00244982 45.748 -0.00244982 45.8757 0.00734947 46.0034C-0.00244982 46.131 -0.00244982 46.2587 0.00734947 46.3864C-0.00244982 46.5141 -0.00244982 46.6417 0.00734947 46.7694C-0.00244982 46.8971 -0.00244982 47.0247 0.00734947 47.1524C-0.00244982 47.2801 -0.00244982 47.4078 0.00734947 47.5354C-0.00244982 47.6631 -0.00244982 47.7908 0.00734947 47.9184C-0.00244982 48.0461 -0.00244982 48.1738 0.00734947 48.3015C-0.00244982 48.4291 -0.00244982 48.5568 0.00734947 48.6845C-0.00244982 48.8121 -0.00244982 48.9398 0.00734947 49.0675C-0.00244982 49.1952 -0.00244982 49.3228 0.00734947 49.4505C-0.00244982 49.5782 -0.00244982 49.7059 0.00734947 49.8335C-0.00244982 49.9612 -0.00244982 50.0889 0.00734947 50.2165C-0.00244982 50.3442 -0.00244982 50.4719 0.00734947 50.5996C-0.00244982 50.7272 -0.00244982 50.8549 0.00734947 50.9826C-0.00244982 51.1102 -0.00244982 51.2379 0.00734947 51.3656C-0.00244982 51.4933 -0.00244982 51.6209 0.00734947 51.7486C-0.00244982 51.8763 -0.00244982 52.004 0.00734947 52.1316C-0.00244982 52.2593 -0.00244982 52.387 0.00734947 52.5146C-0.00244982 52.6423 -0.00244982 52.77 0.00734947 52.8977C-0.00244982 53.0253 -0.00244982 53.153 0.00734947 53.2807C-0.00244982 53.4083 -0.00244982 53.536 0.00734947 53.6637C-0.00244982 53.7914 -0.00244982 53.919 0.00734947 54.0467C-0.00244982 54.1744 -0.00244982 54.302 0.00734947 54.4297C-0.00244982 54.5574 -0.00244982 54.6851 0.00734947 54.8127C-0.00244982 54.9404 -0.00244982 55.0681 0.00734947 55.1958C-0.00244982 55.3234 -0.00244982 55.4511 0.00734947 55.5788C-0.00244982 55.7064 -0.00244982 55.8341 0.00734947 55.9618C-0.00244982 56.0895 -0.00244982 56.2171 0.00734947 56.3448C-0.00244982 56.4725 -0.00244982 56.6001 0.00734947 56.7278C-0.00244982 56.8555 -0.00244982 56.9832 0.00734947 57.1108C-0.00244982 57.2385 -0.00244982 57.3662 0.00734947 57.4939C-0.00244982 57.6215 -0.00244982 57.7492 0.00734947 57.8769C-0.00244982 58.0045 -0.00244982 58.1322 0.00734947 58.2599C-0.00244982 58.3876 -0.00244982 58.5152 0.00734947 58.6429C-0.00244982 58.7706 -0.00244982 58.8982 0.00734947 59.0259C-0.00244982 59.1536 -0.00244982 59.2813 0.00734947 59.4089C-0.00244982 59.5366 -0.00244982 59.6643 0.00734947 59.792C-0.00244982 59.9196 -0.00244982 60.0473 0.00734947 60.175C-0.00244982 60.3026 -0.00244982 60.4303 0.00734947 60.558C-0.00244982 60.6857 -0.00244982 60.8133 0.00734947 60.941C-0.00244982 61.0687 -0.00244982 61.1963 0.00734947 61.324C-0.00244982 61.4517 -0.00244982 61.5794 0.00734947 61.707C-0.00244982 61.8347 -0.00244982 61.9624 0.00734947 62.09C-0.00244982 62.2177 -0.00244982 62.3454 0.00734947 62.4731C-0.00244982 62.6007 -0.00244982 62.7284 0.00734947 62.8561C-0.00244982 62.9838 -0.00244982 63.1114 0.00734947 63.2391C-0.00244982 63.3668 -0.00244982 63.4944 0.00734947 63.6221C-0.00244982 63.7498 -0.00244982 63.8775 0.00734947 64.0051C-0.00244982 64.1328 -0.00244982 64.2605 0.00734947 64.3882C-0.00244982 64.5158 -0.00244982 64.6435 0.00734947 64.7712C-0.00244982 64.8988 -0.00244982 65.0265 0.00734947 65.1542C-0.00244982 65.2819 -0.00244982 65.4095 0.00734947 65.5372C-0.00244982 65.6649 -0.00244982 65.7925 0.00734947 65.9202C-0.00244982 66.0479 -0.00244982 66.1756 0.00734947 66.3032C-0.00244982 66.4309 -0.00244982 66.5586 0.00734947 66.6862C-0.00244982 66.8139 -0.00244982 66.9416 0.00734947 67.0693C-0.00244982 67.1969 -0.00244982 67.3246 0.00734947 67.4523C-0.00244982 67.5799 -0.00244982 67.7076 0.00734947 67.8353C-0.00244982 67.963 -0.00244982 68.0906 0.00734947 68.2183C-0.00244982 68.346 -0.00244982 68.4737 0.00734947 68.6013C-0.00244982 68.729 -0.00244982 68.8567 0.00734947 68.9844C-0.00244982 69.112 -0.00244982 69.2397 0.00734947 69.3674C-0.00244982 69.495 -0.00244982 69.6227 0.00734947 69.7504C-0.00244982 69.8781 -0.00244982 70.0057 0.00734947 70.1334C-0.00244982 70.2611 -0.00244982 70.3887 0.00734947 70.5164C-0.00244982 70.6441 -0.00244982 70.7718 0.00734947 70.8994C-0.00244982 71.0271 -0.00244982 71.1548 0.00734947 71.2824C-0.00244982 71.4101 -0.00244982 71.5378 0.00734947 71.6655C-0.00244982 71.7931 -0.00244982 71.9208 0.00734947 72.0485C-0.00244982 72.1761 -0.00244982 72.3038 0.00734947 72.4315C-0.00244982 72.5592 -0.00244982 72.6868 0.00734947 72.8145C-0.00244982 72.9422 -0.00244982 73.0699 0.00734947 73.1975C-0.00244982 73.3252 -0.00244982 73.4529 0.00734947 73.5805C-0.00244982 73.7082 -0.00244982 73.8359 0.00734947 73.9636C-0.00244982 74.0912 -0.00244982 74.2189 0.00734947 74.3466C-0.00244982 74.4743 -0.00244982 74.6019 0.00734947 74.7296C-0.00244982 74.8573 -0.00244982 74.9849 0.00734947 75.1126C-0.00244982 75.2403 -0.00244982 75.368 0.00734947 75.4956C-0.00244982 75.6233 -0.00244982 75.751 0.00734947 75.8786C-0.00244982 76.0063 -0.00244982 76.134 0.00734947 76.2617C-0.00244982 76.3893 -0.00244982 76.517 0.00734947 76.6447C-0.00244982 76.7723 -0.00244982 76.9 0.00734947 77.0277C-0.00244982 77.1554 -0.00244982 77.283 0.00734947 77.4107C-0.00244982 77.5384 -0.00244982 77.666 0.00734947 77.7937C-0.00244982 77.9214 -0.00244982 78.0491 0.00734947 78.1767C-0.00244982 78.3044 -0.00244982 78.4321 0.00734947 78.5598C-0.00244982 78.6874 -0.00244982 78.8151 0.00734947 78.9428C-0.00244982 79.0704 -0.00244982 79.1981 0.00734947 79.3258C-0.00244982 79.4535 -0.00244982 79.5811 0.00734947 79.7088C-0.00244982 79.8365 -0.00244982 79.9641 0.00734947 80.0918C-0.00244982 80.2195 -0.00244982 80.3472 0.00734947 80.4748C-0.00244982 80.6025 -0.00244982 80.7302 0.00734947 80.8578C-0.00244982 80.9855 -0.00244982 81.1132 0.00734947 81.2409C-0.00244982 81.3685 -0.00244982 81.4962 0.00734947 81.6239C-0.00244982 81.7516 -0.00244982 81.8792 0.00734947 82.0069C-0.00244982 82.1346 -0.00244982 82.2622 0.00734947 82.3899C-0.00244982 82.5176 -0.00244982 82.6453 0.00734947 82.7729C-0.00244982 82.9006 -0.00244982 83.0283 0.00734947 83.156C-0.00244982 83.2836 -0.00244982 83.4113 0.00734947 83.539C-0.00244982 83.6666 -0.00244982 83.7943 0.00734947 83.922C-0.00244982 84.0497 -0.00244982 84.1773 0.00734947 84.305C-0.00244982 84.4327 -0.00244982 84.5603 0.00734947 84.688C-0.00244982 84.8157 -0.00244982 84.9434 0.00734947 85.071C-0.00244982 85.1987 -0.00244982 85.3264 0.00734947 85.454C-0.00244982 85.5817 -0.00244982 85.7094 0.00734947 85.8371C-0.00244982 85.9647 -0.00244982 86.0924 0.00734947 86.2201C-0.00244982 86.3477 -0.00244982 86.4754 0.00734947 86.6031C-0.00244982 86.7308 -0.00244982 86.8584 0.00734947 86.9861C-0.00244982 87.1138 -0.00244982 87.2415 0.00734947 87.3691C-0.00244982 87.4968 -0.00244982 87.6245 0.00734947 87.7522C-0.00244982 87.8798 -0.00244982 88.0075 0.00734947 88.1352C-0.00244982 88.2628 -0.00244982 88.3905 0.00734947 88.5182C-0.00244982 88.6459 -0.00244982 88.7735 0.00734947 88.9012C-0.00244982 89.0289 -0.00244982 89.1565 0.00734947 89.2842C-0.00244982 89.4119 -0.00244982 89.5396 0.00734947 89.6672C-0.00244982 89.7949 -0.00244982 89.9226 0.00734947 90.0502C-0.00244982 90.1779 -0.00244982 90.3056 0.00734947 90.4333C-0.00244982 90.5609 -0.00244982 90.6886 0.00734947 90.8163C-0.00244982 90.9439 -0.00244982 91.0716 0.00734947 91.1993C-0.00244982 91.327 -0.00244982 91.4546 0.00734947 91.5823C-0.00244982 91.71 -0.00244982 91.8377 0.00734947 91.9653C-0.00244982 92.093 -0.00244982 92.2207 0.00734947 92.3483C-0.00244982 92.476 -0.00244982 92.6037 0.00734947 92.7314C-0.00244982 92.859 -0.00244982 92.9867 0.00734947 93.1144C-0.00244982 93.2421 -0.00244982 93.3697 0.00734947 93.4974C-0.00244982 93.6251 -0.00244982 93.7527 0.00734947 93.8804C-0.0808442 95.2062 0.678601 96.5468 2.31018 97.5633L34.5205 117.667C37.8669 119.754 43.3251 119.842 46.7059 117.843L80.7486 97.74C82.5468 96.6794 83.3847 95.275 83.2916 93.8804C83.3014 93.7527 83.3014 93.6251 83.2916 93.4974C83.3014 93.3697 83.3014 93.2421 83.2916 93.1144C83.3014 92.9867 83.3014 92.859 83.2916 92.7314C83.3014 92.6037 83.3014 92.476 83.2916 92.3483C83.3014 92.2207 83.3014 92.093 83.2916 91.9653C83.3014 91.8377 83.3014 91.71 83.2916 91.5823C83.3014 91.4546 83.3014 91.327 83.2916 91.1993C83.3014 91.0716 83.3014 90.9439 83.2916 90.8163C83.3014 90.6886 83.3014 90.5609 83.2916 90.4333C83.3014 90.3056 83.3014 90.1779 83.2916 90.0502C83.3014 89.9226 83.3014 89.7949 83.2916 89.6672C83.3014 89.5396 83.3014 89.4119 83.2916 89.2842C83.3014 89.1565 83.3014 89.0289 83.2916 88.9012C83.3014 88.7735 83.3014 88.6459 83.2916 88.5182C83.3014 88.3905 83.3014 88.2628 83.2916 88.1352C83.3014 88.0075 83.3014 87.8798 83.2916 87.7522C83.3014 87.6245 83.3014 87.4968 83.2916 87.3691C83.3014 87.2415 83.3014 87.1138 83.2916 86.9861C83.3014 86.8584 83.3014 86.7308 83.2916 86.6031C83.3014 86.4754 83.3014 86.3477 83.2916 86.2201C83.3014 86.0924 83.3014 85.9647 83.2916 85.8371C83.3014 85.7094 83.3014 85.5817 83.2916 85.454C83.3014 85.3264 83.3014 85.1987 83.2916 85.071C83.3014 84.9434 83.3014 84.8157 83.2916 84.688C83.3014 84.5603 83.3014 84.4327 83.2916 84.305C83.3014 84.1773 83.3014 84.0497 83.2916 83.922C83.3014 83.7943 83.3014 83.6666 83.2916 83.539C83.3014 83.4113 83.3014 83.2836 83.2916 83.156C83.3014 83.0283 83.3014 82.9006 83.2916 82.7729C83.3014 82.6453 83.3014 82.5176 83.2916 82.3899C83.3014 82.2622 83.3014 82.1346 83.2916 82.0069C83.3014 81.8792 83.3014 81.7516 83.2916 81.6239C83.3014 81.4962 83.3014 81.3685 83.2916 81.2409C83.3014 81.1132 83.3014 80.9855 83.2916 80.8578C83.3014 80.7302 83.3014 80.6025 83.2916 80.4748C83.3014 80.3472 83.3014 80.2195 83.2916 80.0918C83.3014 79.9641 83.3014 79.8365 83.2916 79.7088C83.3014 79.5811 83.3014 79.4535 83.2916 79.3258C83.3014 79.1981 83.3014 79.0704 83.2916 78.9428C83.3014 78.8151 83.3014 78.6874 83.2916 78.5598C83.3014 78.4321 83.3014 78.3044 83.2916 78.1767C83.3014 78.0491 83.3014 77.9214 83.2916 77.7937C83.3014 77.666 83.3014 77.5384 83.2916 77.4107C83.3014 77.283 83.3014 77.1554 83.2916 77.0277C83.3014 76.9 83.3014 76.7723 83.2916 76.6447C83.3014 76.517 83.3014 76.3893 83.2916 76.2617C83.3014 76.134 83.3014 76.0063 83.2916 75.8786C83.3014 75.751 83.3014 75.6233 83.2916 75.4956C83.3014 75.368 83.3014 75.2403 83.2916 75.1126C83.3014 74.9849 83.3014 74.8573 83.2916 74.7296C83.3014 74.6019 83.3014 74.4743 83.2916 74.3466C83.3014 74.2189 83.3014 74.0912 83.2916 73.9636C83.3014 73.8359 83.3014 73.7082 83.2916 73.5805C83.3014 73.4529 83.3014 73.3252 83.2916 73.1975C83.3014 73.0699 83.3014 72.9422 83.2916 72.8145C83.3014 72.6868 83.3014 72.5592 83.2916 72.4315C83.3014 72.3038 83.3014 72.1761 83.2916 72.0485C83.3014 71.9208 83.3014 71.7931 83.2916 71.6655C83.3014 71.5378 83.3014 71.4101 83.2916 71.2824C83.3014 71.1548 83.3014 71.0271 83.2916 70.8994C83.3014 70.7718 83.3014 70.6441 83.2916 70.5164C83.3014 70.3887 83.3014 70.2611 83.2916 70.1334C83.3014 70.0057 83.3014 69.8781 83.2916 69.7504C83.3014 69.6227 83.3014 69.495 83.2916 69.3674C83.3014 69.2397 83.3014 69.112 83.2916 68.9844C83.3014 68.8567 83.3014 68.729 83.2916 68.6013C83.3014 68.4737 83.3014 68.346 83.2916 68.2183C83.3014 68.0906 83.3014 67.963 83.2916 67.8353C83.3014 67.7076 83.3014 67.5799 83.2916 67.4523C83.3014 67.3246 83.3014 67.1969 83.2916 67.0693C83.3014 66.9416 83.3014 66.8139 83.2916 66.6862C83.3014 66.5586 83.3014 66.4309 83.2916 66.3032C83.3014 66.1756 83.3014 66.0479 83.2916 65.9202C83.3014 65.7925 83.3014 65.6649 83.2916 65.5372C83.3014 65.4095 83.3014 65.2819 83.2916 65.1542C83.3014 65.0265 83.3014 64.8988 83.2916 64.7712C83.3014 64.6435 83.3014 64.5158 83.2916 64.3882C83.3014 64.2605 83.3014 64.1328 83.2916 64.0051C83.3014 63.8775 83.3014 63.7498 83.2916 63.6221C83.3014 63.4944 83.3014 63.3668 83.2916 63.2391C83.3014 63.1114 83.3014 62.9838 83.2916 62.8561C83.3014 62.7284 83.3014 62.6007 83.2916 62.4731C83.3014 62.3454 83.3014 62.2177 83.2916 62.09C83.3014 61.9624 83.3014 61.8347 83.2916 61.707C83.3014 61.5794 83.3014 61.4517 83.2916 61.324C83.3014 61.1963 83.3014 61.0687 83.2916 60.941C83.3014 60.8133 83.3014 60.6857 83.2916 60.558C83.3014 60.4303 83.3014 60.3026 83.2916 60.175C83.3014 60.0473 83.3014 59.9196 83.2916 59.792C83.3014 59.6643 83.3014 59.5366 83.2916 59.4089C83.3014 59.2813 83.3014 59.1536 83.2916 59.0259C83.3014 58.8982 83.3014 58.7706 83.2916 58.6429C83.3014 58.5152 83.3014 58.3876 83.2916 58.2599C83.3014 58.1322 83.3014 58.0045 83.2916 57.8769C83.3014 57.7492 83.3014 57.6215 83.2916 57.4939C83.3014 57.3662 83.3014 57.2385 83.2916 57.1108C83.3014 56.9832 83.3014 56.8555 83.2916 56.7278C83.3014 56.6001 83.3014 56.4725 83.2916 56.3448C83.3014 56.2171 83.3014 56.0895 83.2916 55.9618C83.3014 55.8341 83.3014 55.7064 83.2916 55.5788C83.3014 55.4511 83.3014 55.3234 83.2916 55.1958C83.3014 55.0681 83.3014 54.9404 83.2916 54.8127C83.3014 54.6851 83.3014 54.5574 83.2916 54.4297C83.3014 54.302 83.3014 54.1744 83.2916 54.0467C83.3014 53.919 83.3014 53.7914 83.2916 53.6637C83.3014 53.536 83.3014 53.4083 83.2916 53.2807C83.3014 53.153 83.3014 53.0253 83.2916 52.8977C83.3014 52.77 83.3014 52.6423 83.2916 52.5146C83.3014 52.387 83.3014 52.2593 83.2916 52.1316C83.3014 52.004 83.3014 51.8763 83.2916 51.7486C83.3014 51.6209 83.3014 51.4933 83.2916 51.3656C83.3014 51.2379 83.3014 51.1102 83.2916 50.9826C83.3014 50.8549 83.3014 50.7272 83.2916 50.5996C83.3014 50.4719 83.3014 50.3442 83.2916 50.2165C83.3014 50.0889 83.3014 49.9612 83.2916 49.8335C83.3014 49.7059 83.3014 49.5782 83.2916 49.4505C83.3014 49.3228 83.3014 49.1952 83.2916 49.0675C83.3014 48.9398 83.3014 48.8121 83.2916 48.6845C83.3014 48.5568 83.3014 48.4291 83.2916 48.3015C83.3014 48.1738 83.3014 48.0461 83.2916 47.9184C83.3014 47.7908 83.3014 47.6631 83.2916 47.5354C83.3014 47.4078 83.3014 47.2801 83.2916 47.1524C83.3014 47.0247 83.3014 46.8971 83.2916 46.7694C83.3014 46.6417 83.3014 46.5141 83.2916 46.3864C83.3014 46.2587 83.3014 46.131 83.2916 46.0034C83.3014 45.8757 83.3014 45.748 83.2916 45.6203C83.3014 45.4927 83.3014 45.365 83.2916 45.2373C83.3014 45.1097 83.3014 44.982 83.2916 44.8543C83.3014 44.7266 83.3014 44.599 83.2916 44.4713C83.3014 44.3436 83.3014 44.216 83.2916 44.0883C83.3014 43.9606 83.3014 43.8329 83.2916 43.7053C83.3014 43.5776 83.3014 43.4499 83.2916 43.3223C83.3014 43.1946 83.3014 43.0669 83.2916 42.9392C83.3014 42.8116 83.3014 42.6839 83.2916 42.5562C83.3014 42.4285 83.3014 42.3009 83.2916 42.1732C83.3014 42.0455 83.3014 41.9179 83.2916 41.7902C83.3014 41.6625 83.3014 41.5348 83.2916 41.4072C83.3014 41.2795 83.3014 41.1518 83.2916 41.0242C83.3014 40.8965 83.3014 40.7688 83.2916 40.6411C83.3014 40.5135 83.3014 40.3858 83.2916 40.2581C83.3014 40.1304 83.3014 40.0028 83.2916 39.8751C83.3014 39.7474 83.3014 39.6198 83.2916 39.4921C83.3014 39.3644 83.3014 39.2367 83.2916 39.1091C83.3014 38.9814 83.3014 38.8537 83.2916 38.7261C83.3014 38.5984 83.3014 38.4707 83.2916 38.343C83.3014 38.2154 83.3014 38.0877 83.2916 37.96C83.3014 37.8323 83.3014 37.7047 83.2916 37.577C83.3014 37.4493 83.3014 37.3217 83.2916 37.194C83.3014 37.0663 83.3014 36.9386 83.2916 36.811C83.3014 36.6833 83.3014 36.5556 83.2916 36.428C83.3014 36.3003 83.3014 36.1726 83.2916 36.0449C83.3014 35.9173 83.3014 35.7896 83.2916 35.6619C83.3014 35.5342 83.3014 35.4066 83.2916 35.2789C83.3014 35.1512 83.3014 35.0236 83.2916 34.8959C83.3014 34.7682 83.3014 34.6405 83.2916 34.5129C83.3014 34.3852 83.3014 34.2575 83.2916 34.1299C83.3014 34.0022 83.3014 33.8745 83.2916 33.7468C83.3014 33.6192 83.3014 33.4915 83.2916 33.3638C83.3014 33.2361 83.3014 33.1085 83.2916 32.9808C83.3014 32.8531 83.3014 32.7255 83.2916 32.5978C83.3014 32.4701 83.3014 32.3424 83.2916 32.2148C83.3014 32.0871 83.3014 31.9594 83.2916 31.8318C83.3014 31.7041 83.3014 31.5764 83.2916 31.4487C83.3014 31.3211 83.3014 31.1934 83.2916 31.0657C83.3014 30.9381 83.3014 30.8104 83.2916 30.6827C83.3014 30.555 83.3014 30.4274 83.2916 30.2997C83.3014 30.172 83.3014 30.0443 83.2916 29.9167C83.3014 29.789 83.3014 29.6613 83.2916 29.5337C83.3014 29.406 83.3014 29.2783 83.2916 29.1506C83.3014 29.023 83.3014 28.8953 83.2916 28.7676C83.3014 28.64 83.3014 28.5123 83.2916 28.3846C83.3014 28.2569 83.3014 28.1293 83.2916 28.0016C83.3014 27.8739 83.3014 27.7463 83.2916 27.6186C83.3014 27.4909 83.3014 27.3632 83.2916 27.2356C83.3014 27.1079 83.3014 26.9802 83.2916 26.8525C83.3014 26.7249 83.3014 26.5972 83.2916 26.4695C83.3014 26.3419 83.3014 26.2142 83.2916 26.0865C83.3014 25.9588 83.3014 25.8312 83.2916 25.7035C83.3014 25.5758 83.3014 25.4482 83.2916 25.3205C83.3014 25.1928 83.3014 25.0651 83.2916 24.9375C83.3749 23.5183 82.4831 22.0796 80.6164 20.9993L80.6115 21.0042Z" fill="url(#paint0_linear_359_5351)" fill-opacity="0.5"/>
<defs>
<linearGradient id="paint0_linear_359_5351" x1="41.6495" y1="49.3474" x2="41.6495" y2="119.289" gradientUnits="userSpaceOnUse">
<stop stop-color="#4B5563"/>
<stop offset="0.690972" stop-color="#031652"/>
<stop offset="1" stop-color="#031959"/>
</linearGradient>
</defs>
</svg>
