<svg xmlns="http://www.w3.org/2000/svg" width="28" height="28" viewBox="0 0 28 28" fill="none">
  <path d="M8.07373 2.8335H10.7681C10.9936 2.8335 11.1665 3.00641 11.1665 3.23193C11.1665 3.45741 10.9936 3.63037 10.7681 3.63037H8.07373C5.61496 3.63037 3.63037 5.62855 3.63037 8.07373V10.7681C3.63037 10.9893 3.44998 11.1664 3.23193 11.1665C3.00641 11.1665 2.8335 10.9936 2.8335 10.7681V8.07373C2.8335 5.18821 5.18821 2.8335 8.07373 2.8335Z" fill="#F9FAFB" stroke="#F9FAFB"/>
  <path d="M17.2319 2.8335H19.9272C22.8126 2.83372 25.1665 5.18835 25.1665 8.07373V10.7681C25.1665 10.9936 24.9936 11.1665 24.7681 11.1665C24.5502 11.1663 24.3706 10.9892 24.3706 10.7681V8.07373C24.3706 5.6151 22.3722 3.6306 19.9272 3.63037H17.2319C17.0107 3.63037 16.8336 3.44998 16.8335 3.23193C16.8335 3.01384 17.0106 2.8335 17.2319 2.8335Z" fill="#F9FAFB" stroke="#F9FAFB"/>
  <path d="M19.9267 25.6668H18.3051C17.8151 25.6668 17.4067 25.2701 17.4067 24.7685C17.4067 24.2785 17.8034 23.8701 18.3051 23.8701H19.9267C22.1084 23.8701 23.8701 22.0968 23.8701 19.9268V18.3168C23.8701 17.8268 24.2667 17.4185 24.7684 17.4185C25.2584 17.4185 25.6667 17.8151 25.6667 18.3168V19.9268C25.6667 23.0885 23.0884 25.6668 19.9267 25.6668Z" fill="#F9FAFB"/>
  <path d="M10.7685 25.6668H8.0735C4.91183 25.6668 2.3335 23.0885 2.3335 19.9268V17.2318C2.3335 16.7302 2.73016 16.3335 3.23183 16.3335C3.7335 16.3335 4.13016 16.7302 4.13016 17.2318V19.9268C4.13016 22.1085 5.9035 23.8702 8.0735 23.8702H10.7685C11.2585 23.8702 11.6668 24.2668 11.6668 24.7685C11.6668 25.2702 11.2702 25.6668 10.7685 25.6668Z" fill="#F9FAFB"/>
  <path d="M21.5366 13.1016H19.9499H8.04994H6.46327C5.96161 13.1016 5.56494 13.5099 5.56494 13.9999C5.56494 14.4899 5.96161 14.8982 6.46327 14.8982H8.04994H19.9499H21.5366C22.0383 14.8982 22.4349 14.4899 22.4349 13.9999C22.4349 13.5099 22.0383 13.1016 21.5366 13.1016Z" fill="#F9FAFB"/>
  <path d="M8.0498 16.2636V16.6486C8.0498 18.5852 9.61314 20.1486 11.5498 20.1486H16.4498C18.3865 20.1486 19.9498 18.5852 19.9498 16.6486V16.2636C19.9498 16.1236 19.8448 16.0186 19.7048 16.0186H8.2948C8.1548 16.0186 8.0498 16.1236 8.0498 16.2636Z" fill="#F9FAFB"/>
  <path d="M8.0498 11.7366V11.3516C8.0498 9.4149 9.61314 7.85156 11.5498 7.85156H16.4498C18.3865 7.85156 19.9498 9.4149 19.9498 11.3516V11.7366C19.9498 11.8766 19.8448 11.9816 19.7048 11.9816H8.2948C8.1548 11.9816 8.0498 11.8766 8.0498 11.7366Z" fill="#F9FAFB"/>
</svg>