<svg width="24" height="24" viewBox="0 0 24 24" fill="none" xmlns="http://www.w3.org/2000/svg">
<path d="M3 3L21 21" stroke="currentColor" stroke-width="1.5" stroke-linecap="round" stroke-linejoin="round"/>
<path d="M10.58 10.58C10.21 10.95 10 11.45 10 12C10 13.1 10.9 14 12 14C12.55 14 13.05 13.79 13.42 13.42" stroke="currentColor" stroke-width="1.5" stroke-linecap="round" stroke-linejoin="round"/>
<path d="M9.88 5.1C10.58 4.96 11.28 4.88 12 4.88C16.42 4.88 20.12 7.66 21.88 12C21.27 13.66 20.26 15.12 18.98 16.22" stroke="currentColor" stroke-width="1.5" stroke-linecap="round" stroke-linejoin="round"/>
<path d="M6.61 6.61C4.78 7.86 3.29 9.62 2.12 12C3.88 16.34 7.58 19.12 12 19.12C13.02 19.12 14 18.96 14.92 18.66" stroke="currentColor" stroke-width="1.5" stroke-linecap="round" stroke-linejoin="round"/>
</svg>
