<svg width="24" height="24" viewBox="0 0 24 24" fill="none" xmlns="http://www.w3.org/2000/svg">
<path fill-rule="evenodd" clip-rule="evenodd" d="M5.3133 10.5465H18.8988C18.4746 6.97433 16.5338 5.65395 12.1114 5.65395C7.68891 5.65395 5.74812 6.97433 5.3133 10.5465Z" fill="currentColor"/>
<path fill-rule="evenodd" clip-rule="evenodd" d="M23.2046 12.0818H0.795404C0.360583 12.0818 0 12.4298 0 12.8495C0 13.2691 0.360583 13.6171 0.795404 13.6171H1.45294C1.49536 14.2722 1.54839 14.9068 1.65444 15.4595V15.5005C2.32258 19.349 4.41184 21.3449 8.42068 21.9898C8.4631 22 8.51613 22 8.55855 22C8.94034 22 9.26911 21.7339 9.34335 21.3552C9.40698 20.9457 9.12064 20.5466 8.68581 20.4749C5.3027 19.9324 3.77552 18.4483 3.22404 15.2036C3.21343 15.1832 3.21343 15.1729 3.21343 15.1525C3.12859 14.6919 3.08617 14.1698 3.04375 13.6171H5.27088C5.59965 17.5271 7.50862 18.9601 12.1114 18.9601C16.7141 18.9601 18.6231 17.5271 18.9518 13.6171H20.9456C20.9138 14.1801 20.8608 14.7226 20.776 15.2036V15.2446C20.2139 18.4688 18.6761 19.9324 15.3142 20.4749C14.8794 20.5466 14.593 20.9457 14.6673 21.3552C14.7309 21.7339 15.0597 22 15.4415 22C15.4945 22 15.5369 22 15.5793 21.9898C19.6094 21.3449 21.6986 19.3285 22.3562 15.4493V15.4083C22.4516 14.8659 22.5046 14.2517 22.5471 13.6171H23.2046C23.65 13.6171 24 13.2691 24 12.8495C24 12.4298 23.65 12.0818 23.2046 12.0818Z" fill="currentColor"/>
<path fill-rule="evenodd" clip-rule="evenodd" d="M2.30668 9.43083C2.35016 9.438 2.39364 9.44107 2.43606 9.44107C2.81892 9.44107 3.15617 9.17392 3.2198 8.79726C3.76598 5.57922 5.34936 4.05208 8.68264 3.52496C9.1164 3.45638 9.41017 3.06231 9.33911 2.64368C9.26912 2.22505 8.85657 1.94255 8.42599 2.0101C4.39912 2.64573 2.30986 4.66314 1.6502 8.54956C1.57915 8.96717 1.87292 9.36226 2.30668 9.43083Z" fill="currentColor"/>
<path fill-rule="evenodd" clip-rule="evenodd" d="M15.3195 3.52536C18.6538 4.05249 20.2361 5.57962 20.7823 8.79664C20.846 9.17433 21.1832 9.44045 21.5661 9.44045C21.6095 9.44045 21.652 9.43738 21.6954 9.43124C22.1292 9.36164 22.423 8.96655 22.3519 8.54894C21.6923 4.66252 19.603 2.64613 15.5761 2.01051C15.1434 1.94091 14.7341 2.22443 14.663 2.64408C14.592 3.06272 14.8857 3.45678 15.3195 3.52536Z" fill="currentColor"/>
</svg>
